<?xml version="1.0" encoding="utf-8"?>
<!-- Generator: Adobe Illustrator 16.0.0, SVG Export Plug-In . SVG Version: 6.00 Build 0)  -->
<!DOCTYPE svg PUBLIC "-//W3C//DTD SVG 1.1//EN" "http://www.w3.org/Graphics/SVG/1.1/DTD/svg11.dtd">
<svg version="1.1" id="Layer_1" xmlns="http://www.w3.org/2000/svg" xmlns:xlink="http://www.w3.org/1999/xlink" x="0px" y="0px"
	 width="1728px" height="864px" viewBox="0 0 1728 864" enable-background="new 0 0 1728 864" xml:space="preserve">
<path d="M391.263,214.197c22.595,0,42.489-0.984,62.179,0.644c5.398,0.448,12.705,7.742,14.846,13.557
	c14.761,40.094,28.35,80.643,42.447,120.997c1.121,3.208,3.241,6.046,6.073,11.188c13.181-38.729,25.578-75.157,38.624-113.491
	c9.777,109.171,4.726,213.692-47.375,311.358C469.422,444.573,430.724,330.513,391.263,214.197z"/>
<path d="M964.918,561.318C926.203,447.2,887.559,333.283,848.13,217.062c22.54,0,42.395-0.986,62.045,0.644
	c5.41,0.448,12.727,7.728,14.875,13.542c14.791,40.055,28.414,80.567,42.531,120.886c1.125,3.221,3.139,6.113,6.025,11.596
	c13.23-38.887,25.605-75.26,38.727-113.838C1022.037,359.017,1017.031,463.266,964.918,561.318z"/>
<path d="M633.558,215.621c0,116.582,0,231.636,0,348.238c-21.329,0-42.205,0-64.663,0c0-115.945,0-231.548,0-348.238
	C590.269,215.621,610.674,215.621,633.558,215.621z"/>
<path d="M1089.852,566.801c-22.164,0-42.541,0-64.297,0c0-116.15,0-231.188,0-347.997c20.975,0,41.842,0,64.297,0
	C1089.852,334.029,1089.852,449.614,1089.852,566.801z"/>
<path fill="#BF1A00" d="M772.148,565.86c-23.765,0-43.58,0-65.968,0c-23.979-115.541-48.033-231.45-72.623-349.938
	c20.688,0,39.774-1.021,58.625,0.69c4.942,0.448,12.08,8.733,13.258,14.486c17.71,86.344,34.583,172.869,51.675,259.345
	C761.904,514.683,766.773,538.903,772.148,565.86z"/>
<path fill="#BF1A00" d="M780.582,216.872c22.237,0,43.377,0,67.549,0c-22.301,109.425-44.382,217.784-66.468,326.141
	c-1.537,0.143-3.074,0.285-4.611,0.428c-6.396-31.405-10.694-63.459-19.651-94.072c-16.268-55.604,3.156-107.914,10.453-161.359
	C771.071,264.406,776.19,241.076,780.582,216.872z"/>
<path d="M449.432,564.183c-17.379,0-36.39,0-56.818,0c0-103.444,0-206.056,0-313.383
	C432.729,353.411,472.363,451.411,449.432,564.183z"/>
<path d="M906.395,567.124c-17.457,0-36.457,0-56.868,0c0-103.428,0-206.07,0-314.655
	C888.674,356.403,929.693,454.172,906.395,567.124z"/>
</svg>
